<?xml version="1.0" encoding="utf-8"?>
<!-- Generator: Adobe Illustrator 16.0.2, SVG Export Plug-In . SVG Version: 6.00 Build 0)  -->
<!DOCTYPE svg PUBLIC "-//W3C//DTD SVG 1.1//EN" "http://www.w3.org/Graphics/SVG/1.1/DTD/svg11.dtd">
<svg version="1.1" id="Layer_1" xmlns="http://www.w3.org/2000/svg" xmlns:xlink="http://www.w3.org/1999/xlink" x="0px" y="0px"
	 width="240.94px" height="345.83px" viewBox="0 0 240.94 345.83" enable-background="new 0 0 240.94 345.83" xml:space="preserve">
<rect y="0" fill="none" width="240.945" height="345.826"/>
<path fill="#BCBCBC" d="M218.092,65.891c0,2.739-2.398,4.96-5.354,4.96H22.708c-2.956,0-5.353-2.221-5.353-4.96l0,0
	c0-2.74,2.397-4.961,5.353-4.961h190.031C215.693,60.93,218.092,63.151,218.092,65.891L218.092,65.891z"/>
<path fill="#BCBCBC" d="M176.203,108.42c0,2.739-2.85,4.961-6.367,4.961H23.379c-3.517,0-6.368-2.222-6.368-4.961l0,0
	c0-2.739,2.852-4.96,6.368-4.96h146.457C173.354,103.46,176.203,105.681,176.203,108.42L176.203,108.42z"/>
<path fill="#BCBCBC" d="M217.404,87.156c0,2.74-2.396,4.96-5.354,4.96H22.021c-2.956,0-5.353-2.221-5.353-4.96l0,0
	c0-2.74,2.396-4.961,5.353-4.961h190.03C215.008,82.195,217.404,84.416,217.404,87.156L217.404,87.156z"/>
<g>
	<path fill="#C6C6C6" d="M216.72,188.98c0,1.564-1.269,2.834-2.835,2.834H18.816c-1.565,0-2.834-1.27-2.834-2.834l0,0
		c0-1.566,1.269-2.835,2.834-2.835h195.069C215.451,186.146,216.72,187.414,216.72,188.98L216.72,188.98z"/>
	<path fill="#C6C6C6" d="M216.72,204.111c0,1.564-1.269,2.834-2.835,2.834H18.816c-1.565,0-2.834-1.27-2.834-2.834l0,0
		c0-1.566,1.269-2.835,2.834-2.835h195.069C215.451,201.276,216.72,202.545,216.72,204.111L216.72,204.111z"/>
	<path fill="#C6C6C6" d="M216.72,219.24c0,1.566-1.27,2.836-2.835,2.836H18.816c-1.566,0-2.835-1.27-2.835-2.836l0,0
		c0-1.564,1.269-2.834,2.835-2.834h195.068C215.45,216.406,216.72,217.676,216.72,219.24L216.72,219.24z"/>
	<path fill="#C6C6C6" d="M216.72,234.371c0,1.566-1.269,2.835-2.835,2.835H18.816c-1.565,0-2.834-1.269-2.834-2.835l0,0
		c0-1.564,1.269-2.834,2.834-2.834h195.069C215.451,231.537,216.72,232.807,216.72,234.371L216.72,234.371z"/>
	<path fill="#C6C6C6" d="M175.173,249.502c0,1.565-1.27,2.835-2.835,2.835H18.816c-1.566,0-2.835-1.27-2.835-2.835l0,0
		c0-1.565,1.269-2.835,2.835-2.835h153.521C173.903,246.667,175.173,247.937,175.173,249.502L175.173,249.502z"/>
</g>
</svg>
