<?xml version="1.0" encoding="iso-8859-1"?>
<!-- Generator: Adobe Illustrator 19.0.0, SVG Export Plug-In . SVG Version: 6.00 Build 0)  -->
<svg xmlns="http://www.w3.org/2000/svg" xmlns:xlink="http://www.w3.org/1999/xlink" version="1.1" id="Layer_1" x="0px" y="0px" viewBox="0 0 512 512" style="enable-background:new 0 0 512 512;" xml:space="preserve" width="512px" height="512px">
<g>
	<g>
		<path d="M256.002,14.009c-69.362,0-125.791,56.431-125.791,125.792s56.43,125.791,125.791,125.791s125.791-56.429,125.791-125.791    S325.364,14.009,256.002,14.009z M256.002,248.606c-59.994,0-108.805-48.809-108.805-108.805S196.008,30.995,256.002,30.995    c59.994,0,108.805,48.811,108.805,108.806S315.998,248.606,256.002,248.606z" fill="#FFFFFF"/>
	</g>
</g>
<g>
	<g>
		<path d="M386.209,246.407c-69.362,0-125.792,56.429-125.792,125.791s56.431,125.792,125.792,125.792S512,441.56,512,372.198    S455.57,246.407,386.209,246.407z M386.209,481.005c-59.995,0-108.806-48.811-108.806-108.806    c0-59.995,48.811-108.805,108.806-108.805c59.994,0,108.805,48.809,108.805,108.805    C495.014,432.194,446.203,481.005,386.209,481.005z" fill="#FFFFFF"/>
	</g>
</g>
<g>
	<g>
		<path d="M125.792,246.407C56.431,246.407,0,302.837,0,372.198s56.431,125.792,125.792,125.792s125.791-56.431,125.791-125.792    S195.154,246.407,125.792,246.407z M125.792,481.005c-59.995,0-108.806-48.811-108.806-108.806    c0-59.995,48.811-108.805,108.806-108.805c59.994,0,108.805,48.809,108.805,108.805    C234.597,432.194,185.788,481.005,125.792,481.005z" fill="#FFFFFF"/>
	</g>
</g>
<g>
	<g>
		<path d="M296.98,169.991c-3.32-3.317-8.697-3.317-12.014,0c-15.969,15.971-41.957,15.971-57.925,0    c-3.318-3.317-8.695-3.317-12.012,0c-3.317,3.317-3.317,8.695,0,12.01c11.298,11.297,26.136,16.945,40.975,16.945    c14.839,0,29.677-5.648,40.975-16.945C300.297,178.684,300.297,173.306,296.98,169.991z" fill="#FFFFFF"/>
	</g>
</g>
<g>
	<g>
		<path d="M166.767,411.174c-22.595-22.594-59.355-22.595-81.951,0c-3.317,3.317-3.317,8.695,0,12.01    c3.318,3.317,8.695,3.317,12.012,0c15.97-15.972,41.959-15.97,57.927,0c1.659,1.658,3.833,2.488,6.006,2.488    c2.173,0,4.347-0.829,6.006-2.488C170.083,419.868,170.083,414.49,166.767,411.174z" fill="#FFFFFF"/>
	</g>
</g>
<g>
	<g>
		<path d="M421.178,401.443h-69.939c-4.692,0-8.493,3.803-8.493,8.493s3.802,8.493,8.493,8.493h69.939    c4.692,0,8.493-3.803,8.493-8.493S425.868,401.443,421.178,401.443z" fill="#FFFFFF"/>
	</g>
</g>
<g>
	<g>
		<circle cx="431.904" cy="351.31" r="8.493" fill="#FFFFFF"/>
	</g>
</g>
<g>
	<g>
		<circle cx="340.518" cy="351.31" r="8.493" fill="#FFFFFF"/>
	</g>
</g>
<g>
	<g>
		<circle cx="171.482" cy="351.31" r="8.493" fill="#FFFFFF"/>
	</g>
</g>
<g>
	<g>
		<circle cx="80.096" cy="351.31" r="8.493" fill="#FFFFFF"/>
	</g>
</g>
<g>
	<g>
		<circle cx="210.313" cy="110.354" r="8.493" fill="#FFFFFF"/>
	</g>
</g>
<g>
	<g>
		<circle cx="301.699" cy="110.354" r="8.493" fill="#FFFFFF"/>
	</g>
</g>
<g>
</g>
<g>
</g>
<g>
</g>
<g>
</g>
<g>
</g>
<g>
</g>
<g>
</g>
<g>
</g>
<g>
</g>
<g>
</g>
<g>
</g>
<g>
</g>
<g>
</g>
<g>
</g>
<g>
</g>
</svg>
