<?xml version="1.0" encoding="utf-8"?>
<!-- Generator: Adobe Illustrator 16.0.2, SVG Export Plug-In . SVG Version: 6.00 Build 0)  -->
<!DOCTYPE svg PUBLIC "-//W3C//DTD SVG 1.1//EN" "http://www.w3.org/Graphics/SVG/1.1/DTD/svg11.dtd">
<svg version="1.1" id="Layer_1" xmlns="http://www.w3.org/2000/svg" xmlns:xlink="http://www.w3.org/1999/xlink" x="0px" y="0px"
	 width="240.94px" height="345.83px" viewBox="0 0 240.94 345.83" style="enable-background:new 0 0 240.94 345.83;"
	 xml:space="preserve">
<rect y="0" style="fill:none;" width="240.945" height="345.826"/>
<g>
	<path style="fill:#BCBCBC;" d="M175.859,95.89c0,2.739-2.85,4.961-6.367,4.961H23.036c-3.517,0-6.368-2.222-6.368-4.961l0,0
		c0-2.739,2.852-4.96,6.368-4.96h146.456C173.01,90.93,175.859,93.15,175.859,95.89L175.859,95.89z"/>
	<path style="fill:#BCBCBC;" d="M217.404,45.842c0,2.739-2.396,4.96-5.354,4.96H22.021c-2.956,0-5.353-2.221-5.353-4.96l0,0
		c0-2.74,2.396-4.961,5.353-4.961h190.03C215.008,40.881,217.404,43.102,217.404,45.842L217.404,45.842z"/>
	<path style="fill:#BCBCBC;" d="M217.404,70.867c0,2.738-2.396,4.959-5.354,4.959H22.021c-2.956,0-5.353-2.221-5.353-4.959l0,0
		c0-2.74,2.396-4.961,5.353-4.961h190.03C215.008,65.906,217.404,68.127,217.404,70.867L217.404,70.867z"/>
</g>
<g>
	<path style="fill:#C6C6C6;" d="M216.72,301.443c0,1.566-1.27,2.836-2.835,2.836H18.816c-1.565,0-2.834-1.27-2.834-2.836v-11.338
		c0-1.564,1.269-2.834,2.834-2.834h195.069c1.565,0,2.835,1.27,2.835,2.834V301.443z"/>
	<path style="fill:#C6C6C6;" d="M216.72,271.322c0,1.566-1.27,2.836-2.835,2.836H18.816c-1.565,0-2.834-1.27-2.834-2.836v-11.338
		c0-1.564,1.269-2.834,2.834-2.834h195.069c1.565,0,2.835,1.27,2.835,2.834V271.322z"/>
	<path style="fill:#EAEAEA;" d="M113.662,271.322c0,1.566-0.618,2.836-1.379,2.836H17.361c-0.762,0-1.379-1.27-1.379-2.836v-11.338
		c0-1.564,0.618-2.834,1.379-2.834h94.921c0.762,0,1.379,1.27,1.379,2.834V271.322z"/>
	<path style="fill:#EAEAEA;" d="M134.435,301.443c0,1.566-0.749,2.836-1.673,2.836H17.654c-0.923,0-1.672-1.27-1.672-2.836v-11.338
		c0-1.564,0.749-2.834,1.672-2.834h115.108c0.924,0,1.673,1.27,1.673,2.834V301.443z"/>
</g>
<g>
	<path style="fill:#C6C6C6;" d="M220.72,143.106c0,1.566-1.27,2.836-2.835,2.836H22.816c-1.566,0-2.835-1.27-2.835-2.836l0,0
		c0-1.564,1.269-2.834,2.835-2.834h195.068C219.45,140.272,220.72,141.542,220.72,143.106L220.72,143.106z"/>
	<path style="fill:#C6C6C6;" d="M220.72,158.237c0,1.566-1.269,2.835-2.835,2.835H22.816c-1.565,0-2.834-1.269-2.834-2.835l0,0
		c0-1.564,1.269-2.834,2.834-2.834h195.069C219.451,155.403,220.72,156.672,220.72,158.237L220.72,158.237z"/>
	<path style="fill:#C6C6C6;" d="M179.173,173.366c0,1.565-1.27,2.835-2.835,2.835H22.816c-1.566,0-2.835-1.27-2.835-2.835l0,0
		c0-1.565,1.269-2.834,2.835-2.834h153.521C177.903,170.532,179.173,171.801,179.173,173.366L179.173,173.366z"/>
</g>
</svg>
