<?xml version="1.0" encoding="utf-8"?>
<!-- Generator: Adobe Illustrator 16.0.2, SVG Export Plug-In . SVG Version: 6.00 Build 0)  -->
<!DOCTYPE svg PUBLIC "-//W3C//DTD SVG 1.1//EN" "http://www.w3.org/Graphics/SVG/1.1/DTD/svg11.dtd">
<svg version="1.1" id="Layer_1" xmlns="http://www.w3.org/2000/svg" xmlns:xlink="http://www.w3.org/1999/xlink" x="0px" y="0px"
	 width="240.94px" height="345.83px" viewBox="0 0 240.94 345.83" style="enable-background:new 0 0 240.94 345.83;"
	 xml:space="preserve">
<rect y="0" style="fill:none;" width="240.945" height="345.826"/>
<g>
	<path style="fill:#BCBCBC;" d="M176.203,67.325c0,2.739-2.85,4.961-6.367,4.961H23.379c-3.517,0-6.368-2.222-6.368-4.961l0,0
		c0-2.739,2.852-4.96,6.368-4.96h146.457C173.354,62.365,176.203,64.586,176.203,67.325L176.203,67.325z"/>
	<path style="fill:#BCBCBC;" d="M217.404,46.061c0,2.739-2.396,4.96-5.354,4.96H22.021c-2.956,0-5.353-2.221-5.353-4.96l0,0
		c0-2.74,2.396-4.961,5.353-4.961h190.03C215.008,41.1,217.404,43.32,217.404,46.061L217.404,46.061z"/>
</g>
<g>
	<path style="fill:#C6C6C6;" d="M216.72,200.302c0,1.566-1.27,2.836-2.835,2.836H18.816c-1.566,0-2.835-1.27-2.835-2.836l0,0
		c0-1.564,1.269-2.834,2.835-2.834h195.068C215.45,197.468,216.72,198.737,216.72,200.302L216.72,200.302z"/>
	<path style="fill:#C6C6C6;" d="M216.72,215.433c0,1.566-1.269,2.835-2.835,2.835H18.816c-1.565,0-2.834-1.269-2.834-2.835l0,0
		c0-1.564,1.269-2.834,2.834-2.834h195.069C215.451,212.599,216.72,213.868,216.72,215.433L216.72,215.433z"/>
	<path style="fill:#C6C6C6;" d="M175.173,230.563c0,1.565-1.27,2.835-2.835,2.835H18.816c-1.566,0-2.835-1.27-2.835-2.835l0,0
		c0-1.565,1.269-2.835,2.835-2.835h153.521C173.903,227.729,175.173,228.998,175.173,230.563L175.173,230.563z"/>
</g>
<path style="fill:#C6C6C6;" d="M217.404,171.158c0,4.743-3.808,8.584-8.504,8.584H25.171c-4.697,0-8.504-3.842-8.504-8.584v-73.54
	c0-4.741,3.807-8.584,8.504-8.584H208.9c4.696,0,8.504,3.844,8.504,8.584V171.158z"/>
<path style="fill:#C6C6C6;" d="M216.72,271.323c0,1.565-1.27,2.835-2.835,2.835H18.816c-1.565,0-2.834-1.27-2.834-2.835v-11.338
	c0-1.565,1.269-2.835,2.834-2.835h195.069c1.565,0,2.835,1.27,2.835,2.835V271.323z"/>
<g>
	<path style="fill:#C6C6C6;" d="M216.72,301.444c0,1.565-1.27,2.835-2.835,2.835H18.816c-1.565,0-2.834-1.27-2.834-2.835v-11.338
		c0-1.565,1.269-2.835,2.834-2.835h195.069c1.565,0,2.835,1.27,2.835,2.835V301.444z"/>
	<path style="fill:#C6C6C6;" d="M216.72,271.323c0,1.565-1.27,2.835-2.835,2.835H18.816c-1.565,0-2.834-1.27-2.834-2.835v-11.338
		c0-1.565,1.269-2.835,2.834-2.835h195.069c1.565,0,2.835,1.27,2.835,2.835V271.323z"/>
	<path style="fill:#EAEAEA;" d="M113.662,271.323c0,1.565-0.618,2.835-1.379,2.835H17.361c-0.762,0-1.379-1.27-1.379-2.835v-11.338
		c0-1.565,0.618-2.835,1.379-2.835h94.921c0.762,0,1.379,1.27,1.379,2.835V271.323z"/>
	<path style="fill:#EAEAEA;" d="M134.435,301.444c0,1.565-0.749,2.835-1.673,2.835H17.654c-0.923,0-1.672-1.27-1.672-2.835v-11.338
		c0-1.565,0.749-2.835,1.672-2.835h115.108c0.924,0,1.673,1.27,1.673,2.835V301.444z"/>
</g>
<g>
	<g>
		<defs>
			<rect id="SVGID_1_" x="97.606" y="120.918" width="37.49" height="26.94"/>
		</defs>
		<clipPath id="SVGID_2_">
			<use xlink:href="#SVGID_1_"  style="overflow:visible;"/>
		</clipPath>
		<path style="clip-path:url(#SVGID_2_);fill:#A5A5A5;" d="M114.656,129.186c0-2.158-1.845-3.908-4.12-3.908
			c-2.275,0-4.12,1.75-4.12,3.908c0,2.158,1.845,3.907,4.12,3.907C112.812,133.093,114.656,131.344,114.656,129.186L114.656,129.186
			z M114.656,129.186"/>
		<path style="clip-path:url(#SVGID_2_);fill:#A5A5A5;" d="M121.434,136.524l-6.118,5.109c-1.637,1.362-3.944,1.571-5.8,0.526
			l-11.91-6.683v10.417c-0.004,0.501,0.194,0.983,0.549,1.336c0.355,0.354,0.839,0.549,1.34,0.542h33.712
			c0.502,0.007,0.984-0.188,1.34-0.542s0.554-0.835,0.549-1.336v-3.199l-9.145-6.365
			C124.569,135.381,122.729,135.461,121.434,136.524L121.434,136.524z M121.434,136.524"/>
		<path style="clip-path:url(#SVGID_2_);fill:#A5A5A5;" d="M135.096,122.796c0.005-0.501-0.193-0.983-0.549-1.337
			c-0.355-0.354-0.838-0.549-1.34-0.541H99.495c-0.501-0.008-0.984,0.188-1.34,0.541c-0.355,0.354-0.553,0.835-0.549,1.337v11.081
			l12.589,7.064c1.349,0.762,3.029,0.61,4.219-0.382l6.118-5.11c1.781-1.458,4.312-1.568,6.211-0.268l8.353,5.814V122.796z
			 M110.537,134.488c-3.041,0-5.515-2.378-5.515-5.302c0-2.924,2.474-5.304,5.515-5.304c3.041,0,5.515,2.38,5.515,5.304
			S113.577,134.488,110.537,134.488L110.537,134.488z M110.537,134.488"/>
	</g>
</g>
</svg>
