<?xml version="1.0" encoding="utf-8"?>
<!-- Generator: Adobe Illustrator 16.0.2, SVG Export Plug-In . SVG Version: 6.00 Build 0)  -->
<!DOCTYPE svg PUBLIC "-//W3C//DTD SVG 1.1//EN" "http://www.w3.org/Graphics/SVG/1.1/DTD/svg11.dtd">
<svg version="1.1" id="Layer_1" xmlns="http://www.w3.org/2000/svg" xmlns:xlink="http://www.w3.org/1999/xlink" x="0px" y="0px"
	 width="240.94px" height="345.83px" viewBox="0 0 240.94 345.83" style="enable-background:new 0 0 240.94 345.83;"
	 xml:space="preserve">
<rect y="0" style="fill:none;" width="240.945" height="345.826"/>
<g>
	<path style="fill:#BCBCBC;" d="M175.859,130.123c0,2.739-2.85,4.961-6.367,4.961H23.036c-3.517,0-6.368-2.222-6.368-4.961l0,0
		c0-2.739,2.852-4.96,6.368-4.96h146.456C173.01,125.163,175.859,127.384,175.859,130.123L175.859,130.123z"/>
	<path style="fill:#BCBCBC;" d="M217.404,80.076c0,2.739-2.396,4.96-5.354,4.96H22.021c-2.956,0-5.353-2.221-5.353-4.96l0,0
		c0-2.74,2.396-4.961,5.353-4.961h190.03C215.008,75.115,217.404,77.335,217.404,80.076L217.404,80.076z"/>
	<path style="fill:#BCBCBC;" d="M217.404,105.101c0,2.738-2.396,4.959-5.354,4.959H22.021c-2.956,0-5.353-2.221-5.353-4.959l0,0
		c0-2.74,2.396-4.961,5.353-4.961h190.03C215.008,100.14,217.404,102.36,217.404,105.101L217.404,105.101z"/>
</g>
<g>
	<path style="fill:#C6C6C6;" d="M216.72,250.335c0,1.566-1.27,2.836-2.835,2.836H18.816c-1.565,0-2.834-1.27-2.834-2.836v-11.338
		c0-1.564,1.269-2.834,2.834-2.834h195.069c1.565,0,2.835,1.27,2.835,2.834V250.335z"/>
	<path style="fill:#C6C6C6;" d="M216.72,220.214c0,1.566-1.27,2.836-2.835,2.836H18.816c-1.565,0-2.834-1.27-2.834-2.836v-11.338
		c0-1.564,1.269-2.834,2.834-2.834h195.069c1.565,0,2.835,1.27,2.835,2.834V220.214z"/>
	<path style="fill:#EAEAEA;" d="M113.662,220.214c0,1.566-0.618,2.836-1.379,2.836H17.361c-0.762,0-1.379-1.27-1.379-2.836v-11.338
		c0-1.564,0.618-2.834,1.379-2.834h94.921c0.762,0,1.379,1.27,1.379,2.834V220.214z"/>
	<path style="fill:#EAEAEA;" d="M134.435,250.335c0,1.566-0.749,2.836-1.673,2.836H17.654c-0.923,0-1.672-1.27-1.672-2.836v-11.338
		c0-1.564,0.749-2.834,1.672-2.834h115.108c0.924,0,1.673,1.27,1.673,2.834V250.335z"/>
</g>
</svg>
