<?xml version="1.0" encoding="utf-8"?>
<!-- Generator: Adobe Illustrator 16.0.2, SVG Export Plug-In . SVG Version: 6.00 Build 0)  -->
<!DOCTYPE svg PUBLIC "-//W3C//DTD SVG 1.1//EN" "http://www.w3.org/Graphics/SVG/1.1/DTD/svg11.dtd">
<svg version="1.1" id="Layer_1" xmlns="http://www.w3.org/2000/svg" xmlns:xlink="http://www.w3.org/1999/xlink" x="0px" y="0px"
	 width="200px" height="200px" viewBox="0 0 200 200" style="enable-background:new 0 0 200 200;" xml:space="preserve">
<title>Group 28 Copy 5</title>
<desc>Created with Sketch.</desc>
<g>
	
		<linearGradient id="Shape_2_" gradientUnits="userSpaceOnUse" x1="-19.1743" y1="270.4004" x2="-18.7134" y2="270.0218" gradientTransform="matrix(104.4583 -104.4583 140.5062 140.5062 -35891.6602 -39834.8594)">
		<stop  offset="0" style="stop-color:#4285EB"/>
		<stop  offset="1" style="stop-color:#2EC7FF"/>
	</linearGradient>
	<path id="Shape" style="fill:url(#Shape_2_);" d="M171.18,162.551l0.021-51.803c0.003-5.949-4.818-10.77-10.768-10.769
		c-5.948,0.002-10.774,4.827-10.776,10.776l-0.016,39.275c-0.001,1.654-1.257,2.908-2.91,2.91l-98.674,0.039
		c-1.653,0.002-2.908-1.252-2.907-2.906l0.042-98.673c-0.001-1.653,1.255-2.908,2.91-2.909l39.273-0.017
		c5.949-0.001,10.774-4.827,10.777-10.776c0.003-5.949-4.82-10.77-10.769-10.769l-51.808,0.022
		c-6.644,0.003-12.01,5.37-12.014,12.013l-0.05,123.561c-0.003,6.645,5.359,12.006,12.003,12.004l123.563-0.051
		C165.696,174.477,171.091,169.135,171.18,162.551z"/>
	
		<linearGradient id="Shape_3_" gradientUnits="userSpaceOnUse" x1="-18.9712" y1="270.6973" x2="-19.1271" y2="269.6138" gradientTransform="matrix(104.4583 -104.4583 140.5062 140.5062 -35891.6602 -39834.8594)">
		<stop  offset="0" style="stop-color:#29CDFF"/>
		<stop  offset="0.3786" style="stop-color:#148EFF"/>
		<stop  offset="1" style="stop-color:#0A60FF"/>
	</linearGradient>
	<path id="Shape_1_" style="fill:url(#Shape_3_);" d="M171.18,162.551c0.01-14.121,0.016-24.09,0.018-29.906
		c-0.975,7.729-3.608,13.111-7.898,16.156c-5.775,4.092-12.733,3.857-16.567,4.141l-98.672,0.041c-1.653,0-2.908-1.252-2.909-2.908
		l0.04-98.673c0.003-1.653,1.259-2.908,2.91-2.909l39.275-0.017c5.949-0.001,10.774-4.827,10.777-10.776
		c0.003-5.948-4.818-10.77-10.769-10.768l-51.808,0.021c-6.644,0.003-12.01,5.37-12.013,12.013l-0.051,123.562
		c-0.003,6.643,5.359,12.008,12.003,12.004l123.563-0.051C165.696,174.477,171.091,169.135,171.18,162.551z"/>
</g>
<linearGradient id="SVGID_1_" gradientUnits="userSpaceOnUse" x1="142.1113" y1="128.4082" x2="109.2393" y2="47.503" gradientTransform="matrix(0.9858 -0.168 0.168 0.9858 -12.692 20.6029)">
	<stop  offset="0" style="stop-color:#FA816E"/>
	<stop  offset="0.4147" style="stop-color:#F74A5C"/>
	<stop  offset="1" style="stop-color:#F51D2C"/>
</linearGradient>
<path style="fill:url(#SVGID_1_);" d="M166.622,28.86c-4.903-3.417-11.769-2.174-15.334,2.772l-35.223,48.877
	c-0.239,0.331-0.453,0.671-0.65,1.017c-0.187,0.223-0.372,0.449-0.543,0.69l-14.843,20.959c-0.957,1.35-2.705,1.646-4.053,0.689
	L74.74,88.801c-4.852-3.442-11.572-2.297-15.01,2.558c-3.44,4.858-2.301,11.587,2.549,15.042l31.345,22.32
	c5.417,3.844,12.894,2.568,16.733-2.852l22.087-31.186c0.156-0.219,0.292-0.446,0.428-0.674c0.333-0.355,0.655-0.727,0.947-1.132
	l35.225-48.876C172.609,39.055,171.523,32.273,166.622,28.86z"/>
</svg>
