<?xml version="1.0" encoding="utf-8"?>
<!-- Generator: Adobe Illustrator 16.0.2, SVG Export Plug-In . SVG Version: 6.00 Build 0)  -->
<!DOCTYPE svg PUBLIC "-//W3C//DTD SVG 1.1//EN" "http://www.w3.org/Graphics/SVG/1.1/DTD/svg11.dtd">
<svg version="1.1" id="Layer_1" xmlns="http://www.w3.org/2000/svg" xmlns:xlink="http://www.w3.org/1999/xlink" x="0px" y="0px"
	 width="240.94px" height="345.83px" viewBox="0 0 240.94 345.83" enable-background="new 0 0 240.94 345.83" xml:space="preserve">
<rect y="0" fill="none" width="240.945" height="345.826"/>
<path fill="#BCBCBC" d="M205.579,103.891c0,3.13-2.031,5.669-4.536,5.669H40.036c-2.505,0-4.536-2.539-4.536-5.669l0,0
	c0-3.131,2.031-5.669,4.536-5.669h161.007C203.548,98.221,205.579,100.76,205.579,103.891L205.579,103.891z"/>
<path fill="#BCBCBC" d="M176.192,127.425c0,3.131-2.03,5.67-4.535,5.67H67.342c-2.505,0-4.536-2.539-4.536-5.67l0,0
	c0-3.131,2.031-5.669,4.536-5.669h104.315C174.162,121.756,176.192,124.294,176.192,127.425L176.192,127.425z"/>
<g>
	<circle fill="#BCBCBC" cx="118.999" cy="219.527" r="41.577"/>
	<g>
		<path fill="#5D5D5D" d="M116.136,237.85c0,2.142-1.736,3.876-3.876,3.876l0,0c-2.14,0-3.875-1.734-3.875-3.876v-37.349
			c0-2.14,1.735-3.876,3.875-3.876l0,0c2.14,0,3.876,1.736,3.876,3.876V237.85z"/>
		<g>
			<path fill="#5D5D5D" d="M138.39,215.467c1.386,1.044,1.466,3.276,0.179,4.985l0,0c-1.291,1.707-3.459,2.249-4.842,1.206
				l-24.186-18.224c-1.383-1.046-1.464-3.278-0.176-4.99l0,0c1.289-1.707,3.458-2.246,4.842-1.203L138.39,215.467z"/>
			<path fill="#5D5D5D" d="M132.837,215.335c1.308-1.14,3.51-0.754,4.915,0.856l0,0c1.405,1.618,1.485,3.851,0.178,4.987
				l-22.833,19.892c-1.309,1.14-3.508,0.757-4.918-0.859l0,0c-1.404-1.612-1.483-3.848-0.176-4.987L132.837,215.335z"/>
			<path fill="#5D5D5D" d="M129.525,223.579c0,4.768-3.865,8.633-8.632,8.633l0,0c-4.768,0-8.633-3.865-8.633-8.633v-9.464
				c0-4.768,3.865-8.632,8.633-8.632l0,0c4.767,0,8.632,3.864,8.632,8.632V223.579z"/>
		</g>
	</g>
</g>
</svg>
