<?xml version="1.0" encoding="utf-8"?>
<!-- Generator: Adobe Illustrator 16.0.2, SVG Export Plug-In . SVG Version: 6.00 Build 0)  -->
<!DOCTYPE svg PUBLIC "-//W3C//DTD SVG 1.1//EN" "http://www.w3.org/Graphics/SVG/1.1/DTD/svg11.dtd">
<svg version="1.1" id="Layer_1" xmlns="http://www.w3.org/2000/svg" xmlns:xlink="http://www.w3.org/1999/xlink" x="0px" y="0px"
	 width="45.35px" height="11.34px" viewBox="0 0 45.35 11.34" style="enable-background:new 0 0 45.35 11.34;" xml:space="preserve"
	>
<linearGradient id="SVGID_1_" gradientUnits="userSpaceOnUse" x1="17.6348" y1="4.8784" x2="15.7671" y2="0.2816" gradientTransform="matrix(0.9858 -0.168 0.168 0.9858 1.9248 6.4258)">
	<stop  offset="0" style="stop-color:#F4806E"/>
	<stop  offset="0.4147" style="stop-color:#F34A5C"/>
	<stop  offset="1" style="stop-color:#F11A2C"/>
</linearGradient>
<path style="fill:url(#SVGID_1_);" d="M21.13,2.907c-0.279-0.195-0.669-0.125-0.87,0.157l-2.001,2.776
	c-0.014,0.019-0.026,0.039-0.037,0.058c-0.011,0.012-0.021,0.024-0.031,0.039l-0.843,1.192c-0.054,0.076-0.153,0.094-0.23,0.039
	l-1.207-0.856c-0.275-0.196-0.657-0.131-0.853,0.145c-0.195,0.275-0.13,0.659,0.145,0.856l1.781,1.268
	c0.307,0.219,0.732,0.146,0.95-0.162l1.255-1.773c0.01-0.012,0.017-0.026,0.025-0.038c0.019-0.021,0.037-0.04,0.054-0.063l2-2.777
	C21.471,3.486,21.41,3.1,21.13,2.907z"/>
<g>
	<path d="M8.144,8.334c-0.109,0.205-0.275,0.371-0.501,0.5C7.417,8.961,7.136,9.023,6.8,9.023c-0.328,0-0.618-0.059-0.873-0.182
		C5.673,8.725,5.47,8.559,5.318,8.35C5.167,8.141,5.079,7.906,5.055,7.646h0.533c0.02,0.148,0.075,0.299,0.167,0.447
		C5.846,8.242,5.978,8.367,6.15,8.467c0.174,0.098,0.383,0.146,0.627,0.146c0.322,0,0.568-0.086,0.739-0.26
		c0.17-0.174,0.255-0.393,0.255-0.656c0-0.225-0.057-0.408-0.169-0.553C7.49,7.003,7.352,6.894,7.186,6.815
		c-0.167-0.076-0.393-0.16-0.682-0.251C6.187,6.463,5.931,6.367,5.736,6.272C5.542,6.178,5.376,6.041,5.242,5.858
		C5.107,5.675,5.041,5.433,5.041,5.13c0-0.384,0.135-0.697,0.404-0.937c0.269-0.241,0.639-0.36,1.111-0.36
		c0.479,0,0.861,0.118,1.142,0.353c0.281,0.235,0.448,0.529,0.5,0.879h-0.54C7.614,4.848,7.5,4.657,7.315,4.489
		C7.13,4.319,6.876,4.236,6.555,4.236c-0.299,0-0.537,0.077-0.714,0.231C5.663,4.622,5.574,4.834,5.574,5.108
		c0,0.216,0.055,0.392,0.166,0.526C5.85,5.769,5.986,5.872,6.147,5.945c0.161,0.072,0.381,0.154,0.66,0.244
		C7.129,6.29,7.39,6.39,7.589,6.485c0.2,0.097,0.369,0.241,0.508,0.432c0.139,0.194,0.209,0.448,0.209,0.767
		C8.306,7.914,8.251,8.131,8.144,8.334z"/>
	<path d="M12.625,5.036v3.938H12.12V8.002c-0.101,0.34-0.284,0.6-0.548,0.775c-0.264,0.18-0.567,0.268-0.908,0.268
		c-0.461,0-0.835-0.146-1.121-0.436C9.256,8.318,9.113,7.893,9.113,7.33V5.036h0.505v2.251c0,0.432,0.108,0.762,0.324,0.99
		s0.512,0.342,0.887,0.342c0.394,0,0.708-0.125,0.94-0.377c0.234-0.252,0.35-0.625,0.35-1.113V5.036H12.625z"/>
	<path d="M14.794,5.195c0.255-0.154,0.565-0.231,0.931-0.231v0.549h-0.167c-0.379,0-0.694,0.101-0.943,0.307
		c-0.251,0.204-0.375,0.537-0.375,0.997v2.159h-0.512V5.036h0.512v0.815C14.354,5.567,14.54,5.35,14.794,5.195z"/>
</g>
<g>
	<path d="M23.036,8.338c0.239-0.178,0.384-0.416,0.433-0.721h0.532c-0.071,0.418-0.272,0.758-0.599,1.02
		c-0.326,0.256-0.74,0.387-1.239,0.387c-0.375,0-0.708-0.08-0.999-0.244c-0.291-0.158-0.518-0.391-0.681-0.697
		c-0.164-0.303-0.245-0.664-0.245-1.079c0-0.413,0.081-0.772,0.245-1.077c0.164-0.305,0.39-0.538,0.681-0.698
		c0.291-0.162,0.624-0.243,0.999-0.243c0.384,0,0.716,0.081,0.999,0.243c0.28,0.16,0.495,0.375,0.641,0.644
		c0.146,0.271,0.219,0.563,0.219,0.88c0,0.134-0.009,0.257-0.028,0.367h-3.258c0.004,0.332,0.072,0.611,0.205,0.834
		c0.133,0.223,0.305,0.389,0.516,0.494s0.44,0.158,0.684,0.158C22.498,8.605,22.795,8.518,23.036,8.338z M21.464,5.556
		c-0.212,0.104-0.384,0.267-0.516,0.485c-0.132,0.219-0.203,0.492-0.212,0.818h2.782c0.019-0.322-0.033-0.593-0.158-0.813
		c-0.126-0.221-0.294-0.386-0.505-0.49c-0.212-0.106-0.444-0.158-0.692-0.158C21.908,5.398,21.675,5.45,21.464,5.556z"/>
	<path d="M25.04,5.036l1.369,3.282l1.263-3.282h0.562l-2.315,5.798h-0.575l0.793-1.904l-1.659-3.894H25.04z"/>
</g>
<g>
	<path d="M39.36,5.228c0.298,0.16,0.528,0.393,0.695,0.698c0.169,0.305,0.254,0.664,0.254,1.077c0,0.415-0.085,0.772-0.254,1.077
		c-0.167,0.303-0.397,0.535-0.695,0.697c-0.293,0.166-0.629,0.246-1.005,0.246c-0.374,0-0.71-0.08-1.009-0.246
		c-0.299-0.162-0.531-0.395-0.702-0.703c-0.172-0.305-0.255-0.66-0.255-1.071c0-0.413,0.083-0.772,0.255-1.077
		c0.171-0.305,0.403-0.538,0.702-0.698c0.299-0.162,0.635-0.243,1.009-0.243C38.731,4.985,39.067,5.066,39.36,5.228z M37.636,5.598
		c-0.222,0.115-0.4,0.292-0.535,0.53c-0.134,0.238-0.201,0.53-0.201,0.875c0,0.347,0.067,0.64,0.201,0.874
		c0.135,0.234,0.313,0.412,0.535,0.527c0.221,0.115,0.461,0.172,0.72,0.172c0.255,0,0.491-0.057,0.712-0.172
		c0.218-0.115,0.396-0.293,0.529-0.527s0.2-0.527,0.2-0.874c0-0.344-0.066-0.636-0.2-0.875c-0.134-0.238-0.312-0.415-0.529-0.53
		c-0.221-0.115-0.457-0.173-0.712-0.173C38.097,5.425,37.856,5.483,37.636,5.598z"/>
</g>
<g>
	
		<linearGradient id="SVGID_2_" gradientUnits="userSpaceOnUse" x1="-95.335" y1="176.7344" x2="-95.3093" y2="176.7133" gradientTransform="matrix(104.4583 -104.4583 140.5062 140.5062 -14839.75 -34782.0938)">
		<stop  offset="0" style="stop-color:#3F81BA"/>
		<stop  offset="1" style="stop-color:#2DAECF"/>
	</linearGradient>
	<polygon style="fill:url(#SVGID_2_);" points="34.637,7.75 33.694,7.75 33.694,7.75 	"/>
	
		<linearGradient id="SVGID_3_" gradientUnits="userSpaceOnUse" x1="-95.3428" y1="176.7207" x2="-95.3166" y2="176.6992" gradientTransform="matrix(104.4583 -104.4583 140.5062 140.5062 -14839.75 -34782.0938)">
		<stop  offset="0" style="stop-color:#3F81BA"/>
		<stop  offset="1" style="stop-color:#2DAECF"/>
	</linearGradient>
	<path style="fill:url(#SVGID_3_);" d="M31.27,7.584l0.001-5.607c0-0.039,0.016-0.072,0.037-0.1c-0.021,0.027-0.037,0.061-0.037,0.1
		L31.27,7.584z"/>
	
		<linearGradient id="SVGID_4_" gradientUnits="userSpaceOnUse" x1="-95.3442" y1="176.7207" x2="-95.3442" y2="176.7207" gradientTransform="matrix(104.4583 -104.4583 140.5062 140.5062 -14839.75 -34782.0938)">
		<stop  offset="0" style="stop-color:#3F81BA"/>
		<stop  offset="1" style="stop-color:#2DAECF"/>
	</linearGradient>
	<path style="fill:url(#SVGID_4_);" d="M31.336,7.715c-0.006-0.006-0.014-0.008-0.018-0.012C31.322,7.707,31.33,7.709,31.336,7.715z
		"/>
	
		<linearGradient id="SVGID_5_" gradientUnits="userSpaceOnUse" x1="-95.3379" y1="176.7266" x2="-95.3115" y2="176.7049" gradientTransform="matrix(104.4583 -104.4583 140.5062 140.5062 -14839.75 -34782.0938)">
		<stop  offset="0" style="stop-color:#3F81BA"/>
		<stop  offset="1" style="stop-color:#2DAECF"/>
	</linearGradient>
	<path style="fill:url(#SVGID_5_);" d="M31.372,1.824c0.021-0.007,0.042-0.012,0.065-0.012h2.23h-2.23
		C31.414,1.812,31.393,1.817,31.372,1.824z"/>
	
		<linearGradient id="SVGID_6_" gradientUnits="userSpaceOnUse" x1="-95.332" y1="176.7334" x2="-95.3058" y2="176.7119" gradientTransform="matrix(104.4583 -104.4583 140.5062 140.5062 -14839.75 -34782.0938)">
		<stop  offset="0" style="stop-color:#3F81BA"/>
		<stop  offset="1" style="stop-color:#2DAECF"/>
	</linearGradient>
	<path style="fill:url(#SVGID_6_);" d="M34.28,1.199c0-0.295-0.21-0.543-0.489-0.599C34.07,0.656,34.28,0.904,34.28,1.199z"/>
	
		<linearGradient id="SVGID_7_" gradientUnits="userSpaceOnUse" x1="-95.3442" y1="176.7207" x2="-95.3442" y2="176.7207" gradientTransform="matrix(104.4583 -104.4583 140.5062 140.5062 -14839.75 -34782.0938)">
		<stop  offset="0" style="stop-color:#3F81BA"/>
		<stop  offset="1" style="stop-color:#2DAECF"/>
	</linearGradient>
	<path style="fill:url(#SVGID_7_);" d="M31.371,7.736c0.009,0.004,0.021,0.004,0.03,0.006C31.392,7.74,31.38,7.74,31.371,7.736z"/>
	
		<linearGradient id="SVGID_8_" gradientUnits="userSpaceOnUse" x1="-95.3311" y1="176.7393" x2="-95.3048" y2="176.7177" gradientTransform="matrix(104.4583 -104.4583 140.5062 140.5062 -14839.75 -34782.0938)">
		<stop  offset="0" style="stop-color:#3F81BA"/>
		<stop  offset="1" style="stop-color:#2DAECF"/>
	</linearGradient>
	<path style="fill:url(#SVGID_8_);" d="M36.027,6.597V5.35c0-0.336-0.272-0.61-0.612-0.61c-0.338,0-0.612,0.274-0.613,0.612v2.232
		c0,0.094-0.071,0.166-0.165,0.166c0.218-0.018,0.613-0.004,0.941-0.236C35.822,7.342,35.972,7.035,36.027,6.597z"/>
	
		<linearGradient id="SVGID_9_" gradientUnits="userSpaceOnUse" x1="-95.3428" y1="176.7197" x2="-95.3101" y2="176.6929" gradientTransform="matrix(104.4583 -104.4583 140.5062 140.5062 -14839.75 -34782.0938)">
		<stop  offset="0" style="stop-color:#3F81BA"/>
		<stop  offset="1" style="stop-color:#2DAECF"/>
	</linearGradient>
	<path style="fill:url(#SVGID_9_);" d="M31.282,7.65c0.002,0.004,0.004,0.004,0.006,0.008C31.286,7.654,31.284,7.654,31.282,7.65z"
		/>
	
		<linearGradient id="SVGID_10_" gradientUnits="userSpaceOnUse" x1="-95.3423" y1="176.7217" x2="-95.3423" y2="176.7217" gradientTransform="matrix(104.4583 -104.4583 140.5062 140.5062 -14839.75 -34782.0938)">
		<stop  offset="0" style="stop-color:#26ADCE"/>
		<stop  offset="0.3786" style="stop-color:#2288BC"/>
		<stop  offset="1" style="stop-color:#1E5AA6"/>
	</linearGradient>
	<path style="fill:url(#SVGID_10_);" d="M31.27,7.584c0,0.023,0.005,0.045,0.013,0.066C31.274,7.629,31.27,7.607,31.27,7.584z"/>
	
		<linearGradient id="SVGID_11_" gradientUnits="userSpaceOnUse" x1="-95.3428" y1="176.7217" x2="-95.3428" y2="176.7217" gradientTransform="matrix(104.4583 -104.4583 140.5062 140.5062 -14839.75 -34782.0938)">
		<stop  offset="0" style="stop-color:#26ADCE"/>
		<stop  offset="0.3786" style="stop-color:#2288BC"/>
		<stop  offset="1" style="stop-color:#1E5AA6"/>
	</linearGradient>
	<path style="fill:url(#SVGID_11_);" d="M31.318,7.703c-0.013-0.014-0.022-0.029-0.03-0.045C31.296,7.674,31.306,7.689,31.318,7.703
		z"/>
	
		<linearGradient id="SVGID_12_" gradientUnits="userSpaceOnUse" x1="-95.3428" y1="176.7217" x2="-95.3428" y2="176.7217" gradientTransform="matrix(104.4583 -104.4583 140.5062 140.5062 -14839.75 -34782.0938)">
		<stop  offset="0" style="stop-color:#26ADCE"/>
		<stop  offset="0.3786" style="stop-color:#2288BC"/>
		<stop  offset="1" style="stop-color:#1E5AA6"/>
	</linearGradient>
	<path style="fill:url(#SVGID_12_);" d="M31.336,7.715c0.012,0.008,0.021,0.018,0.035,0.021C31.356,7.732,31.348,7.723,31.336,7.715
		z"/>
	
		<linearGradient id="SVGID_13_" gradientUnits="userSpaceOnUse" x1="-95.3428" y1="176.7227" x2="-95.3428" y2="176.7227" gradientTransform="matrix(104.4583 -104.4583 140.5062 140.5062 -14839.75 -34782.0938)">
		<stop  offset="0" style="stop-color:#26ADCE"/>
		<stop  offset="0.3786" style="stop-color:#2288BC"/>
		<stop  offset="1" style="stop-color:#1E5AA6"/>
	</linearGradient>
	<path style="fill:url(#SVGID_13_);" d="M31.434,7.75c-0.01,0-0.022-0.004-0.032-0.008C31.411,7.746,31.424,7.75,31.434,7.75
		L31.434,7.75z"/>
	
		<linearGradient id="SVGID_14_" gradientUnits="userSpaceOnUse" x1="-95.3149" y1="176.7012" x2="-95.3149" y2="176.7012" gradientTransform="matrix(104.4583 -104.4583 140.5062 140.5062 -14839.75 -34782.0938)">
		<stop  offset="0" style="stop-color:#26ADCE"/>
		<stop  offset="0.3786" style="stop-color:#2288BC"/>
		<stop  offset="1" style="stop-color:#1E5AA6"/>
	</linearGradient>
	<path style="fill:url(#SVGID_14_);" d="M31.308,1.877c0.017-0.022,0.037-0.042,0.064-0.053C31.345,1.835,31.324,1.855,31.308,1.877
		z"/>
	
		<linearGradient id="SVGID_15_" gradientUnits="userSpaceOnUse" x1="-95.3252" y1="176.751" x2="-95.3341" y2="176.6889" gradientTransform="matrix(104.4583 -104.4583 140.5062 140.5062 -14839.75 -34782.0938)">
		<stop  offset="0" style="stop-color:#26ADCE"/>
		<stop  offset="0.3786" style="stop-color:#2288BC"/>
		<stop  offset="1" style="stop-color:#1E5AA6"/>
	</linearGradient>
	<path style="fill:url(#SVGID_15_);" d="M30.727,0.59c-0.378,0-0.683,0.305-0.685,0.681l-0.001,7.022l0.001-7.022
		C30.044,0.895,30.349,0.59,30.727,0.59z"/>
	
		<linearGradient id="SVGID_16_" gradientUnits="userSpaceOnUse" x1="-95.3325" y1="176.7373" x2="-95.3063" y2="176.7158" gradientTransform="matrix(104.4583 -104.4583 140.5062 140.5062 -14839.75 -34782.0938)">
		<stop  offset="0" style="stop-color:#3F81BA"/>
		<stop  offset="1" style="stop-color:#2DAECF"/>
	</linearGradient>
	<path style="fill:url(#SVGID_16_);" d="M35.578,7.514c-0.328,0.232-0.724,0.219-0.941,0.236h-0.942v1.225h1.645
		c0.375,0,0.683-0.307,0.688-0.68c0-0.213,0-0.406,0-0.586l0.001-1.112C35.972,7.035,35.822,7.342,35.578,7.514z"/>
	
		<linearGradient id="SVGID_17_" gradientUnits="userSpaceOnUse" x1="-95.3394" y1="176.7246" x2="-95.3131" y2="176.7031" gradientTransform="matrix(104.4583 -104.4583 140.5062 140.5062 -14839.75 -34782.0938)">
		<stop  offset="0" style="stop-color:#3F81BA"/>
		<stop  offset="1" style="stop-color:#2DAECF"/>
	</linearGradient>
	<path style="fill:url(#SVGID_17_);" d="M31.434,7.75L31.434,7.75c-0.01,0-0.022-0.004-0.032-0.008
		c-0.01-0.002-0.021-0.002-0.03-0.006c-0.015-0.004-0.023-0.014-0.035-0.021c-0.006-0.006-0.014-0.008-0.018-0.012
		c-0.013-0.014-0.022-0.029-0.03-0.045c-0.002-0.004-0.004-0.004-0.006-0.008c-0.008-0.021-0.013-0.043-0.013-0.066l0.001-5.607
		c0-0.039,0.016-0.072,0.037-0.1c0.017-0.022,0.037-0.042,0.064-0.053c0.021-0.007,0.042-0.012,0.065-0.012h2.23
		c0.337,0,0.612-0.275,0.612-0.613c0-0.295-0.21-0.543-0.489-0.599c-0.039-0.008-0.081-0.013-0.121-0.013L30.727,0.59
		c-0.378,0-0.683,0.305-0.685,0.681l-0.001,7.022c-0.002,0.375,0.303,0.682,0.681,0.682h3.105V7.75H31.434z"/>
	<linearGradient id="SVGID_18_" gradientUnits="userSpaceOnUse" x1="33.8848" y1="13.3828" x2="31.8123" y2="-1.0243">
		<stop  offset="0" style="stop-color:#26ADCE"/>
		<stop  offset="0.3786" style="stop-color:#2288BC"/>
		<stop  offset="1" style="stop-color:#1E5AA6"/>
	</linearGradient>
	<path style="fill:url(#SVGID_18_);" d="M35.578,7.514c-0.328,0.232-0.724,0.219-0.941,0.236h-0.81l0,0h-2.394l0,0
		c-0.01,0-0.022-0.004-0.032-0.008c-0.01-0.002-0.021-0.002-0.03-0.006c-0.015-0.004-0.023-0.014-0.035-0.021
		c-0.006-0.006-0.014-0.008-0.018-0.012c-0.013-0.014-0.022-0.029-0.03-0.045c-0.002-0.004-0.004-0.004-0.006-0.008
		c-0.008-0.021-0.013-0.043-0.013-0.066l0.001-5.607c0-0.039,0.016-0.072,0.037-0.1c0.017-0.022,0.037-0.042,0.064-0.053
		c0.021-0.007,0.042-0.012,0.065-0.012h2.23c0.337,0,0.612-0.275,0.612-0.613c0-0.295-0.21-0.543-0.489-0.599
		c-0.039-0.008-0.081-0.013-0.121-0.013L30.727,0.59c-0.378,0-0.683,0.305-0.685,0.681l-0.001,7.022
		c-0.002,0.375,0.303,0.682,0.681,0.682h2.973l0,0h1.645c0.375,0,0.683-0.307,0.688-0.68c0-0.213,0-0.406,0-0.586l0.001-1.112
		C35.972,7.035,35.822,7.342,35.578,7.514z"/>
</g>
</svg>
