<?xml version="1.0" encoding="UTF-8" standalone="no"?>
<svg width="265px" height="199px" viewBox="0 0 265 199" version="1.1" xmlns="http://www.w3.org/2000/svg" xmlns:xlink="http://www.w3.org/1999/xlink">
    <!-- Generator: Sketch 43.1 (39012) - http://www.bohemiancoding.com/sketch -->
    <title>Page 1</title>
    <desc>Created with Sketch.</desc>
    <defs>
        <polygon id="path-1" points="0 198.734177 264.924049 198.734177 264.924049 0.481012658 0 0.481012658"></polygon>
    </defs>
    <g id="J-UCS---DONE!" stroke="none" stroke-width="1" fill="none" fill-rule="evenodd">
        <g id="UCS-Preview_SignIn01_Audience_v2" transform="translate(-733.000000, -462.000000)">
            <g id="Page-1" transform="translate(733.000000, 461.000000)">
                <path d="M70.0885599,23.8029114 L94.496427,23.8029114" id="Stroke-1" stroke="#05467E" stroke-width="1.5" stroke-linecap="round" stroke-linejoin="round"></path>
                <path d="M70.0885599,34.6153165 L94.496427,34.6153165" id="Stroke-2" stroke="#05467E" stroke-width="1.5" stroke-linecap="round" stroke-linejoin="round"></path>
                <g id="Group-60" transform="translate(0.000000, 0.784810)">
                    <path d="M61.0104195,30.8701266 C62.5762932,30.8701266 63.8457152,32.138481 63.8457152,33.703038 C63.8457152,35.2675949 62.5762932,36.5372152 61.0104195,36.5372152 C59.4445457,36.5372152 58.1751238,35.2675949 58.1751238,33.703038 C58.1751238,32.138481 59.4445457,30.8701266 61.0104195,30.8701266 Z" id="Stroke-3" stroke="#05467E" stroke-width="1.5"></path>
                    <path d="M70.0885599,44.6429114 L94.496427,44.6429114" id="Stroke-5" stroke="#05467E" stroke-width="1.5" stroke-linecap="round" stroke-linejoin="round"></path>
                    <path d="M61.0104195,41.6825316 C62.5762932,41.6825316 63.8457152,42.9508861 63.8457152,44.515443 C63.8457152,46.08 62.5762932,47.3496203 61.0104195,47.3496203 C59.4445457,47.3496203 58.1751238,46.08 58.1751238,44.515443 C58.1751238,42.9508861 59.4445457,41.6825316 61.0104195,41.6825316 Z" id="Stroke-7" stroke="#05467E" stroke-width="1.5"></path>
                    <polyline id="Stroke-9" stroke="#05467E" stroke-width="1.5" stroke-linecap="round" stroke-linejoin="round" points="67.6149608 17.4863291 61.2235101 23.8724051 57.1162587 19.7673418"></polyline>
                    <path d="M133.590948,17.4863291 L133.590948,7.43443038 C133.590948,4.13949367 130.962155,1.43063291 127.767064,1.43063291 L46.2048044,1.43063291 C42.9666383,1.43063291 40.3378454,4.13949367 40.3378454,7.43443038 L40.3378454,57.7534177 C40.3378454,61.0951899 42.9666383,63.8040506 46.2048044,63.8040506 L64.8546649,63.8040506 L64.9002729,83.8521519 L82.5416904,63.8040506 L95.2371765,63.8040506" id="Stroke-11" stroke="#333E48" stroke-width="1.5" stroke-linecap="round" stroke-linejoin="round"></path>
                    <path d="M229.22124,157.636835 L212.637674,181.203924 L196.056642,157.636835 C175.244204,173.70519 161.3021,159.745696 161.3021,197.783671 L263.973249,197.784937 C263.973249,159.745696 250.033679,173.70519 229.22124,157.636835 Z" id="Stroke-13" stroke="#333E48" stroke-width="1.5" stroke-linecap="round" stroke-linejoin="round"></path>
                    <path d="M232.927268,133.458481 C230.580991,144.873671 223.188699,155.31038 212.638054,155.31038 C195.889793,155.31038 187.098856,129.002785 193.824765,114.244557 C194.25044,113.31038 194.736925,112.42557 195.277886,111.59519" id="Stroke-15" stroke="#333E48" stroke-width="1.5" stroke-linecap="round" stroke-linejoin="round"></path>
                    <path d="M188.649907,104.023671 C188.649907,104.023671 205.343693,128.922405 244.729978,136.379367" id="Stroke-17" stroke="#333E48" stroke-width="1.5" stroke-linecap="round" stroke-linejoin="round"></path>
                    <path d="M224.556051,150.088101 L246.954634,150.088101 L242.310222,121.475443 C238.992242,106.974177 236.626962,104.023544 236.626962,104.023544 C231.231285,96.6311392 222.496091,91.8286076 212.638435,91.8286076 C202.780778,91.8286076 194.045584,96.6311392 188.649907,104.023544 C188.649907,104.023544 186.284627,106.974177 182.966647,121.475443 L178.322235,150.088101 L200.720818,150.088101" id="Stroke-19" stroke="#333E48" stroke-width="1.5" stroke-linecap="round" stroke-linejoin="round"></path>
                    <path d="M212.637928,181.204304 L212.637928,197.784051" id="Stroke-21" stroke="#333E48" stroke-width="1.5" stroke-linecap="round" stroke-linejoin="round"></path>
                    <path d="M69.4634773,151.893165 L64.0994729,162.258987 L55.9280443,169.010886 L47.7578826,162.258987 L42.3938782,151.893165 C20.105515,169.102025 0.950166113,157.048861 0.950166113,197.784304 L110.907189,197.784304 C110.907189,157.048861 91.7518405,169.102025 69.4634773,151.893165 Z" id="Stroke-23" stroke="#333E48" stroke-width="1.5" stroke-linecap="round" stroke-linejoin="round"></path>
                    <path d="M47.7578826,162.258861 L42.3938782,151.893038 C40.674711,153.220886 38.9732802,154.374051 37.298454,155.390506 L39.4990388,170.58038 L47.7578826,162.258861 L42.3938782,151.893038" id="Stroke-25" stroke="#333E48" stroke-width="1.5" stroke-linecap="round" stroke-linejoin="round"></path>
                    <path d="M69.4634773,151.893165 L64.0994729,162.258987 L72.3583167,170.580506 L74.5589014,155.390633 C72.8840753,154.374177 71.1826445,153.221013 69.4634773,151.893165 L64.0994729,162.258987" id="Stroke-27" stroke="#333E48" stroke-width="1.5" stroke-linecap="round" stroke-linejoin="round"></path>
                    <path d="M55.9286777,149.559494 C52.8856124,149.559494 49.9147597,148.707595 47.2935681,147.174684 C39.2728992,142.483544 34.7944496,133.21519 33.4971561,123.449367 C32.4126999,115.282278 33.555433,106.768354 36.7125183,100.294937 C37.0900509,99.5202532 37.5093909,98.7556962 38.0832913,98.1139241 C40.034299,95.9303797 43.6398627,95.2075949 46.3560709,94.4696203 C49.4954197,93.6164557 52.6335017,92.7759494 55.9286777,92.7759494" id="Stroke-29" stroke="#333E48" stroke-width="1.5" stroke-linecap="round" stroke-linejoin="round"></path>
                    <path d="M55.9355189,149.559494 C58.9785843,149.559494 61.949437,148.707595 64.5706286,147.174684 C72.5925643,142.482278 77.0722808,133.210127 78.3670405,123.443038 C79.4502299,115.278481 78.3087637,106.767089 75.1516784,100.294937 C74.7741457,99.5202532 74.3560726,98.7556962 73.7809054,98.1139241 C71.8298977,95.9303797 68.224334,95.2075949 65.5081258,94.4696203 C62.368777,93.6164557 59.230695,92.7759494 55.9355189,92.7759494" id="Stroke-31" stroke="#333E48" stroke-width="1.5" stroke-linecap="round" stroke-linejoin="round"></path>
                    <path d="M67.3505612,111.37962 L78.3674206,123.442911 C79.45061,115.278354 78.3078769,106.766962 75.1520585,100.29481 C74.7732589,99.5213924 74.3551858,98.7568354 73.7812855,98.1137975 C71.8302777,95.9302532 68.2234472,95.2074684 65.507239,94.4694937 C62.369157,93.6163291 59.2310751,92.7758228 55.935899,92.7758228 C52.6407229,92.7758228 49.4950396,93.6163291 46.3556908,94.4694937 C43.6407495,95.2074684 40.0339189,95.9302532 38.0829112,98.1137975 C37.5090109,98.7568354 37.0896709,99.5213924 36.7121382,100.29481 C33.5550529,106.768228 32.4135867,115.282152 33.498043,123.449241 L33.5081781,123.444177 L49.6445324,111.37962 L67.3505612,111.37962" id="Stroke-33" stroke="#333E48" stroke-width="1.5" stroke-linecap="round" stroke-linejoin="round"></path>
                    <path d="M67.3505612,111.37962 L69.8628004,95.7251899" id="Stroke-35" stroke="#333E48" stroke-width="1.5" stroke-linecap="round" stroke-linejoin="round"></path>
                    <polyline id="Stroke-37" stroke="#333E48" stroke-width="1.5" stroke-linecap="round" stroke-linejoin="round" points="64.0995996 162.258861 55.928171 169.010759 47.7580093 162.258861"></polyline>
                    <path d="M58.5701395,178.72038 C58.5701395,180.178608 57.3881329,181.360886 55.9286777,181.360886 C54.4692226,181.360886 53.2872159,180.178608 53.2872159,178.72038 C53.2872159,177.263418 54.4692226,176.081139 55.9286777,176.081139 C57.3881329,176.081139 58.5701395,177.263418 58.5701395,178.72038 Z" id="Fill-39" fill="#333E48"></path>
                    <path d="M55.9286777,185.508861 C57.3881329,185.508861 58.5701395,186.691139 58.5701395,188.148101 C58.5701395,189.606329 57.3881329,190.788608 55.9286777,190.788608 C54.4692226,190.788608 53.2872159,189.606329 53.2872159,188.148101 C53.2872159,186.691139 54.4692226,185.508861 55.9286777,185.508861" id="Fill-41" fill="#333E48"></path>
                    <path d="M180.810277,134.761519 L160.222078,134.761519 L160.222078,154.676709 L142.783362,134.761519 L99.3747065,134.761519 C97.0993754,134.761519 95.2383167,132.902025 95.2383167,130.628608 L95.2383167,21.6197468 C95.2383167,19.3463291 97.0993754,17.4868354 99.3747065,17.4868354 L191.716917,17.4868354 C193.992248,17.4868354 195.854574,19.3463291 195.854574,21.6197468 L195.854574,97.0273418" id="Stroke-43" stroke="#333E48" stroke-width="1.5" stroke-linecap="round" stroke-linejoin="round"></path>
                    <path d="M159.467899,48.5103797 C159.143576,48.5103797 158.848391,48.3863291 158.625418,48.1875949 C158.701432,47.5344304 158.752107,46.8749367 158.759709,46.2040506 C158.963678,46.0686076 159.20692,45.9863291 159.467899,45.9863291 C160.162154,45.9863291 160.72972,46.5534177 160.72972,47.2508861 C160.72972,47.9508861 160.162154,48.5103797 159.467899,48.5103797 M131.624231,48.5103797 C130.929977,48.5103797 130.361144,47.9508861 130.361144,47.2508861 C130.361144,46.5534177 130.929977,45.9863291 131.624231,45.9863291 C131.88521,45.9863291 132.128453,46.0686076 132.332422,46.2040506 C132.340023,46.8749367 132.390699,47.5344304 132.466712,48.1875949 C132.24374,48.3863291 131.948555,48.5103797 131.624231,48.5103797 M159.385551,42.9724051 C159.030823,42.9724051 158.688763,43.0192405 158.361906,43.0989873 C157.103886,38.1281013 153.016905,34.2812658 147.911345,33.3711392 C147.683305,33.3306329 147.476803,33.3002532 147.246229,33.2711392 C147.284236,32.0255696 147.342513,30.5850633 149.1757,29.2901266 L148.885582,28.5597468 C148.885582,28.5597468 145.312958,29.6686076 144.898685,32.7243038 C144.720054,31.8926582 143.054096,30.8534177 142.228085,30.6559494 L141.817613,31.3167089 C141.817613,31.3167089 142.912205,31.8635443 143.178251,33.3711392 L143.178251,33.3711392 L143.178251,33.3711392 C138.073959,34.2825316 133.988245,38.1281013 132.730225,43.0989873 C132.403367,43.0192405 132.061308,42.9724051 131.706579,42.9724051 C129.346366,42.9724051 127.425764,44.8863291 127.425764,47.2508861 C127.425764,49.6103797 129.346366,51.5293671 131.706579,51.5293671 C132.258942,51.5293671 132.785968,51.4192405 133.269919,51.2293671 C133.63985,52.1470886 134.104798,53.015443 134.660962,53.815443 L138.214583,51.4217722 L138.184178,51.3825316 C137.244147,50.1749367 136.66898,48.3989873 136.572696,46.6306329 C136.466278,44.68 136.942628,42.7432911 138.189246,41.6040506 C140.759762,39.4179747 143.557051,40.4141772 145.310424,42.5103797 L145.781706,42.5103797 C147.53508,40.4141772 150.332369,39.4179747 152.902885,41.6040506 C154.149503,42.7432911 154.625852,44.68 154.518167,46.6306329 C154.421883,48.3989873 153.847983,50.1749367 152.907952,51.3825316 L152.877547,51.4217722 L156.431168,53.815443 C156.986065,53.015443 157.45228,52.1470886 157.820944,51.2293671 C158.306163,51.4192405 158.833188,51.5293671 159.385551,51.5293671 C161.744497,51.5293671 163.666366,49.6103797 163.666366,47.2508861 C163.666366,44.8863291 161.744497,42.9724051 159.385551,42.9724051" id="Fill-45" fill="#333E48"></path>
                    <path d="M130.725627,95.1207595 L172.279559,95.1207595" id="Stroke-47" stroke="#00BF6F" stroke-width="1.5" stroke-linecap="round" stroke-linejoin="round"></path>
                    <path d="M130.725627,105.933165 L172.279559,105.933165" id="Stroke-49" stroke="#00BF6F" stroke-width="1.5" stroke-linecap="round" stroke-linejoin="round"></path>
                    <path d="M121.647614,102.972785 C123.213487,102.972785 124.482909,104.241139 124.482909,105.805696 C124.482909,107.370253 123.213487,108.639873 121.647614,108.639873 C120.08174,108.639873 118.812318,107.370253 118.812318,105.805696 C118.812318,104.241139 120.08174,102.972785 121.647614,102.972785 Z" id="Stroke-51" stroke="#00BF6F" stroke-width="1.5"></path>
                    <path d="M130.725627,116.74557 L172.279559,116.74557" id="Stroke-53" stroke="#00BF6F" stroke-width="1.5" stroke-linecap="round" stroke-linejoin="round"></path>
                    <path d="M121.647614,113.78519 C123.213487,113.78519 124.482909,115.053544 124.482909,116.618101 C124.482909,118.182658 123.213487,119.452278 121.647614,119.452278 C120.08174,119.452278 118.812318,118.182658 118.812318,116.618101 C118.812318,115.053544 120.08174,113.78519 121.647614,113.78519 Z" id="Stroke-55" stroke="#00BF6F" stroke-width="1.5"></path>
                    <mask id="mask-2" fill="white">
                        <use xlink:href="#path-1"></use>
                    </mask>
                    <g id="Clip-58"></g>
                    <polygon id="Stroke-57" stroke="#00BF6F" stroke-width="1.5" stroke-linecap="round" stroke-linejoin="round" mask="url(#mask-2)" points="118.801169 81.956962 172.289187 81.956962 172.289187 65.7949367 118.801169 65.7949367"></polygon>
                    <polyline id="Stroke-59" stroke="#00BF6F" stroke-width="1.5" stroke-linecap="round" stroke-linejoin="round" mask="url(#mask-2)" points="128.252028 89.5889873 121.860578 95.9750633 117.753326 91.87"></polyline>
                </g>
            </g>
        </g>
    </g>
</svg>