<?xml version="1.0" encoding="iso-8859-1"?>
<!-- Generator: Adobe Illustrator 19.0.0, SVG Export Plug-In . SVG Version: 6.00 Build 0)  -->
<svg xmlns="http://www.w3.org/2000/svg" xmlns:xlink="http://www.w3.org/1999/xlink" version="1.1" id="Capa_1" x="0px" y="0px" viewBox="0 0 511.999 511.999" style="enable-background:new 0 0 511.999 511.999;" xml:space="preserve" width="512px" height="512px">
<g>
	<g>
		<path d="M509.084,452.235L392.272,335.003l69.872-23.456c4.08-1.37,6.825-5.196,6.815-9.5s-2.771-8.118-6.856-9.47    l-233.715-77.342c-3.586-1.187-7.538-0.249-10.211,2.421c-2.672,2.672-3.609,6.623-2.421,10.211l77.342,233.706    c1.353,4.086,5.166,6.847,9.47,6.856c0.007,0,0.014,0,0.022,0c4.294,0,8.11-2.742,9.477-6.815l23.437-69.802L452.28,508.999    c1.875,1.881,4.419,2.938,7.073,2.94c0.003,0,0.005,0,0.008,0c2.651,0,5.195-1.054,7.07-2.929l42.64-42.65    C512.97,462.461,512.976,456.141,509.084,452.235z M459.374,487.79L338.254,366.245c-1.898-1.905-4.455-2.94-7.081-2.94    c-0.758,0-1.523,0.086-2.277,0.263c-3.373,0.79-6.098,3.269-7.2,6.553l-19.038,56.698l-61.672-186.352l186.359,61.672    l-56.706,19.037c-3.278,1.102-5.755,3.817-6.548,7.183s0.208,6.902,2.648,9.352l121.137,121.572L459.374,487.79z" fill="#FFFFFF"/>
	</g>
</g>
<g>
	<g>
		<path d="M147.037,72.97c-3.904-3.903-10.235-3.903-14.14,0l-42.918,42.919L67.055,92.967c-3.904-3.903-10.235-3.903-14.14,0    c-3.904,3.904-3.904,10.235,0,14.14l29.994,29.992c1.953,1.952,4.511,2.928,7.069,2.928c2.558,0,5.118-0.977,7.069-2.928    l49.988-49.988C150.941,83.206,150.941,76.875,147.037,72.97z" fill="#FFFFFF"/>
	</g>
</g>
<g>
	<g>
		<path d="M99.977,0.06C44.849,0.06,0,44.908,0,100.036s44.849,99.977,99.977,99.977s99.977-44.849,99.977-99.977    S155.104,0.06,99.977,0.06z M99.977,180.017c-44.102,0-79.981-35.88-79.981-79.981s35.88-79.981,79.981-79.981    s79.981,35.88,79.981,79.981S144.078,180.017,99.977,180.017z" fill="#FFFFFF"/>
	</g>
</g>
<g>
	<g>
		<path d="M411.903,0.06c-55.127,0-99.977,44.848-99.977,99.977s44.849,99.977,99.977,99.977c55.127,0,99.977-44.849,99.977-99.977    S467.031,0.06,411.903,0.06z M411.903,180.017c-44.102,0-79.981-35.88-79.981-79.981s35.88-79.981,79.981-79.981    c44.102,0,79.981,35.88,79.981,79.981S456.005,180.017,411.903,180.017z" fill="#FFFFFF"/>
	</g>
</g>
<g>
	<g>
		<path d="M448.966,122.96l-22.924-22.924l22.924-22.924c3.904-3.904,3.904-10.235,0-14.139c-3.904-3.903-10.235-3.903-14.14,0    l-22.923,22.923L388.98,62.973c-3.904-3.903-10.235-3.903-14.14,0c-3.904,3.904-3.904,10.235,0,14.14l22.924,22.924L374.84,122.96    c-3.904,3.904-3.904,10.235,0,14.14c1.953,1.952,4.511,2.928,7.069,2.928s5.118-0.977,7.069-2.928l22.925-22.924l22.924,22.924    c1.953,1.952,4.511,2.928,7.069,2.928s5.118-0.977,7.069-2.928C452.87,133.195,452.87,126.865,448.966,122.96z" fill="#FFFFFF"/>
	</g>
</g>
<g>
</g>
<g>
</g>
<g>
</g>
<g>
</g>
<g>
</g>
<g>
</g>
<g>
</g>
<g>
</g>
<g>
</g>
<g>
</g>
<g>
</g>
<g>
</g>
<g>
</g>
<g>
</g>
<g>
</g>
</svg>
