<?xml version="1.0" encoding="utf-8"?>
<!-- Generator: Adobe Illustrator 16.0.2, SVG Export Plug-In . SVG Version: 6.00 Build 0)  -->
<!DOCTYPE svg PUBLIC "-//W3C//DTD SVG 1.1//EN" "http://www.w3.org/Graphics/SVG/1.1/DTD/svg11.dtd">
<svg version="1.1" id="Layer_1" xmlns="http://www.w3.org/2000/svg" xmlns:xlink="http://www.w3.org/1999/xlink" x="0px" y="0px"
	 width="144px" height="50px" viewBox="0 0 144 50" style="enable-background:new 0 0 144 50;" xml:space="preserve">
<linearGradient id="SVGID_1_" gradientUnits="userSpaceOnUse" x1="58.3711" y1="29.0654" x2="51.3778" y2="11.8535" gradientTransform="matrix(0.9858 -0.168 0.168 0.9858 -0.5703 14.9253)">
	<stop  offset="0" style="stop-color:#F4806E"/>
	<stop  offset="0.4147" style="stop-color:#F34A5C"/>
	<stop  offset="1" style="stop-color:#F11A2C"/>
</linearGradient>
<path style="fill:url(#SVGID_1_);" d="M65.609,13.678c-1.043-0.727-2.504-0.462-3.262,0.59l-7.494,10.398
	c-0.051,0.07-0.097,0.145-0.139,0.217c-0.039,0.049-0.079,0.096-0.115,0.146l-3.158,4.459c-0.203,0.287-0.575,0.352-0.861,0.148
	l-4.519-3.207c-1.032-0.73-2.462-0.488-3.193,0.545s-0.49,2.465,0.542,3.201l6.669,4.748c1.152,0.818,2.743,0.547,3.56-0.607
	l4.699-6.635c0.033-0.047,0.063-0.094,0.092-0.143c0.07-0.076,0.139-0.154,0.201-0.24L66.125,16.9
	C66.883,15.847,66.652,14.404,65.609,13.678z"/>
<g>
	<path d="M16.972,34.006c-0.405,0.766-1.031,1.387-1.876,1.863c-0.847,0.478-1.899,0.716-3.159,0.716
		c-1.224,0-2.313-0.225-3.267-0.675c-0.954-0.449-1.714-1.066-2.281-1.85c-0.567-0.783-0.896-1.66-0.986-2.633H7.4
		c0.072,0.559,0.279,1.117,0.621,1.674c0.342,0.559,0.837,1.021,1.485,1.391s1.431,0.554,2.349,0.554
		c1.206,0,2.128-0.323,2.768-0.972c0.639-0.648,0.958-1.467,0.958-2.457c0-0.846-0.212-1.535-0.635-2.066
		c-0.423-0.529-0.945-0.939-1.566-1.229c-0.621-0.287-1.471-0.602-2.551-0.944C9.641,27,8.683,26.635,7.954,26.285
		c-0.729-0.352-1.346-0.869-1.85-1.553c-0.504-0.684-0.756-1.593-0.756-2.727c0-1.44,0.503-2.609,1.512-3.51
		c1.008-0.9,2.394-1.35,4.158-1.35c1.8,0,3.227,0.441,4.279,1.323c1.053,0.882,1.678,1.98,1.876,3.294h-2.025
		c-0.162-0.81-0.59-1.53-1.282-2.16c-0.693-0.63-1.643-0.945-2.849-0.945c-1.116,0-2.007,0.288-2.673,0.864
		c-0.667,0.576-0.999,1.377-0.999,2.403c0,0.81,0.207,1.467,0.621,1.971s0.922,0.891,1.526,1.161c0.603,0.27,1.426,0.576,2.47,0.918
		c1.206,0.377,2.183,0.747,2.93,1.107c0.747,0.36,1.381,0.9,1.903,1.62s0.783,1.674,0.783,2.861
		C17.579,32.427,17.376,33.242,16.972,34.006z"/>
	<path d="M33.752,21.654v14.743h-1.89v-3.646c-0.378,1.278-1.062,2.251-2.052,2.916c-0.99,0.666-2.125,0.999-3.402,0.999
		c-1.728,0-3.127-0.545-4.198-1.633c-1.071-1.09-1.606-2.688-1.606-4.793v-8.586h1.89v8.424c0,1.619,0.405,2.857,1.215,3.713
		c0.81,0.854,1.917,1.281,3.321,1.281c1.476,0,2.65-0.472,3.523-1.417c0.873-0.944,1.31-2.335,1.31-4.171v-7.831H33.752z"/>
	<path d="M41.878,22.248c0.954-0.576,2.115-0.864,3.483-0.864v2.052h-0.621c-1.422,0-2.602,0.383-3.537,1.147
		c-0.936,0.765-1.404,2.012-1.404,3.739v8.074h-1.917V21.654H39.8v3.051C40.231,23.643,40.924,22.824,41.878,22.248z"/>
</g>
<g>
	<path d="M72.743,34.02c0.899-0.666,1.439-1.566,1.62-2.699h1.998c-0.271,1.566-1.018,2.834-2.241,3.807
		c-1.225,0.973-2.772,1.459-4.644,1.459c-1.404,0-2.651-0.303-3.74-0.906c-1.089-0.602-1.939-1.475-2.551-2.619
		c-0.612-1.143-0.918-2.486-0.918-4.035s0.306-2.894,0.918-4.037c0.612-1.143,1.462-2.016,2.551-2.619
		c1.089-0.603,2.335-0.905,3.74-0.905c1.44,0,2.687,0.302,3.739,0.905c1.054,0.603,1.854,1.409,2.404,2.417
		c0.549,1.008,0.822,2.106,0.822,3.294c0,0.504-0.035,0.963-0.107,1.377H64.13c0.018,1.242,0.274,2.281,0.77,3.119
		c0.495,0.836,1.138,1.453,1.931,1.85c0.792,0.395,1.647,0.594,2.565,0.594C70.727,35.02,71.843,34.686,72.743,34.02z
		 M66.857,23.598c-0.792,0.396-1.436,1.003-1.931,1.822c-0.495,0.82-0.76,1.841-0.796,3.064h10.422
		c0.071-1.205-0.126-2.223-0.594-3.05s-1.098-1.44-1.89-1.836s-1.656-0.594-2.592-0.594C68.521,23.004,67.649,23.202,66.857,23.598z
		"/>
	<path d="M80.249,21.654l5.13,12.286l4.725-12.286h2.106l-8.667,21.708h-2.16l2.971-7.127l-6.211-14.581H80.249z"/>
</g>
<g>
	<path d="M133.888,22.37c1.107,0.603,1.976,1.476,2.605,2.619c0.63,1.144,0.945,2.488,0.945,4.037s-0.315,2.889-0.945,4.023
		c-0.63,1.133-1.498,2.006-2.605,2.619c-1.106,0.611-2.362,0.918-3.767,0.918c-1.403,0-2.664-0.307-3.779-0.918
		c-1.116-0.613-1.994-1.49-2.633-2.633c-0.64-1.143-0.959-2.48-0.959-4.01c0-1.549,0.319-2.894,0.959-4.037
		c0.639-1.143,1.517-2.016,2.633-2.619c1.115-0.603,2.376-0.905,3.779-0.905C131.525,21.465,132.781,21.767,133.888,22.37z
		 M127.422,23.76c-0.829,0.432-1.495,1.094-1.998,1.985c-0.505,0.89-0.757,1.984-0.757,3.281c0,1.295,0.252,2.385,0.757,3.268
		c0.503,0.881,1.169,1.537,1.998,1.971c0.827,0.432,1.728,0.646,2.699,0.646c0.954,0,1.841-0.215,2.66-0.646
		c0.818-0.434,1.48-1.09,1.984-1.971c0.504-0.883,0.756-1.973,0.756-3.268c0-1.297-0.252-2.391-0.756-3.281
		c-0.504-0.891-1.166-1.553-1.984-1.985c-0.819-0.432-1.706-0.648-2.66-0.648C129.149,23.112,128.249,23.328,127.422,23.76z"/>
</g>
<g>
	
		<linearGradient id="SVGID_2_" gradientUnits="userSpaceOnUse" x1="-46.2227" y1="195.873" x2="-46.1257" y2="195.7934" gradientTransform="matrix(104.4583 -104.4583 140.5062 140.5062 -22578.75 -32314.2813)">
		<stop  offset="0" style="stop-color:#3F81BA"/>
		<stop  offset="1" style="stop-color:#2DAECF"/>
	</linearGradient>
	<polygon style="fill:url(#SVGID_2_);" points="116.194,31.811 112.667,31.813 112.667,31.813 	"/>
	
		<linearGradient id="SVGID_3_" gradientUnits="userSpaceOnUse" x1="-46.25" y1="195.8203" x2="-46.152" y2="195.7398" gradientTransform="matrix(104.4583 -104.4583 140.5062 140.5062 -22578.75 -32314.2813)">
		<stop  offset="0" style="stop-color:#3F81BA"/>
		<stop  offset="1" style="stop-color:#2DAECF"/>
	</linearGradient>
	<path style="fill:url(#SVGID_3_);" d="M103.581,31.193l0.01-20.994c0-0.146,0.055-0.272,0.135-0.376
		c-0.08,0.104-0.135,0.229-0.135,0.376L103.581,31.193z"/>
	
		<linearGradient id="SVGID_4_" gradientUnits="userSpaceOnUse" x1="-46.252" y1="195.8193" x2="-46.1539" y2="195.7388" gradientTransform="matrix(104.4583 -104.4583 140.5062 140.5062 -22578.75 -32314.2813)">
		<stop  offset="0" style="stop-color:#3F81BA"/>
		<stop  offset="1" style="stop-color:#2DAECF"/>
	</linearGradient>
	<path style="fill:url(#SVGID_4_);" d="M103.832,31.682c-0.023-0.018-0.052-0.027-0.073-0.047
		C103.78,31.654,103.809,31.664,103.832,31.682z"/>
	
		<linearGradient id="SVGID_5_" gradientUnits="userSpaceOnUse" x1="-46.2314" y1="195.8428" x2="-46.1333" y2="195.7622" gradientTransform="matrix(104.4583 -104.4583 140.5062 140.5062 -22578.75 -32314.2813)">
		<stop  offset="0" style="stop-color:#3F81BA"/>
		<stop  offset="1" style="stop-color:#2DAECF"/>
	</linearGradient>
	<path style="fill:url(#SVGID_5_);" d="M103.965,9.628c0.074-0.031,0.157-0.047,0.245-0.047l8.355-0.004l-8.355,0.004
		C104.122,9.581,104.039,9.597,103.965,9.628z"/>
	
		<linearGradient id="SVGID_6_" gradientUnits="userSpaceOnUse" x1="-46.209" y1="195.8701" x2="-46.1109" y2="195.7895" gradientTransform="matrix(104.4583 -104.4583 140.5062 140.5062 -22578.75 -32314.2813)">
		<stop  offset="0" style="stop-color:#3F81BA"/>
		<stop  offset="1" style="stop-color:#2DAECF"/>
	</linearGradient>
	<path style="fill:url(#SVGID_6_);" d="M114.858,7.284c0.001-1.108-0.785-2.031-1.829-2.245
		C114.073,5.253,114.859,6.177,114.858,7.284z"/>
	
		<linearGradient id="SVGID_7_" gradientUnits="userSpaceOnUse" x1="-46.2549" y1="195.8223" x2="-46.2548" y2="195.8222" gradientTransform="matrix(104.4583 -104.4583 140.5062 140.5062 -22578.75 -32314.2813)">
		<stop  offset="0" style="stop-color:#3F81BA"/>
		<stop  offset="1" style="stop-color:#2DAECF"/>
	</linearGradient>
	<path style="fill:url(#SVGID_7_);" d="M103.956,31.764c0.035,0.016,0.079,0.016,0.119,0.023
		C104.035,31.779,103.991,31.779,103.956,31.764z"/>
	
		<linearGradient id="SVGID_8_" gradientUnits="userSpaceOnUse" x1="-46.2061" y1="195.8955" x2="-46.108" y2="195.8149" gradientTransform="matrix(104.4583 -104.4583 140.5062 140.5062 -22578.75 -32314.2813)">
		<stop  offset="0" style="stop-color:#3F81BA"/>
		<stop  offset="1" style="stop-color:#2DAECF"/>
	</linearGradient>
	<path style="fill:url(#SVGID_8_);" d="M121.398,27.498l0.002-4.665c0-1.266-1.025-2.292-2.292-2.291
		c-1.265,0.001-2.292,1.026-2.293,2.293l-0.002,8.356c0,0.352-0.269,0.619-0.619,0.619c0.814-0.061,2.296-0.012,3.524-0.881
		C120.631,30.283,121.189,29.139,121.398,27.498z"/>
	
		<linearGradient id="SVGID_9_" gradientUnits="userSpaceOnUse" x1="-46.252" y1="195.8184" x2="-46.1539" y2="195.7378" gradientTransform="matrix(104.4583 -104.4583 140.5062 140.5062 -22578.75 -32314.2813)">
		<stop  offset="0" style="stop-color:#3F81BA"/>
		<stop  offset="1" style="stop-color:#2DAECF"/>
	</linearGradient>
	<path style="fill:url(#SVGID_9_);" d="M103.629,31.438c0.005,0.014,0.017,0.023,0.023,0.035
		C103.646,31.461,103.634,31.451,103.629,31.438z"/>
	
		<linearGradient id="SVGID_10_" gradientUnits="userSpaceOnUse" x1="-46.2539" y1="195.8213" x2="-46.254" y2="195.8203" gradientTransform="matrix(104.4583 -104.4583 140.5062 140.5062 -22578.75 -32314.2813)">
		<stop  offset="0" style="stop-color:#26ADCE"/>
		<stop  offset="0.3786" style="stop-color:#2288BC"/>
		<stop  offset="1" style="stop-color:#1E5AA6"/>
	</linearGradient>
	<path style="fill:url(#SVGID_10_);" d="M103.581,31.193c0,0.088,0.018,0.17,0.048,0.244
		C103.599,31.363,103.581,31.281,103.581,31.193z"/>
	
		<linearGradient id="SVGID_11_" gradientUnits="userSpaceOnUse" x1="-46.2373" y1="195.9404" x2="-46.2705" y2="195.7099" gradientTransform="matrix(104.4583 -104.4583 140.5062 140.5062 -22578.75 -32314.2813)">
		<stop  offset="0" style="stop-color:#26ADCE"/>
		<stop  offset="0.3786" style="stop-color:#2288BC"/>
		<stop  offset="1" style="stop-color:#1E5AA6"/>
	</linearGradient>
	<path style="fill:url(#SVGID_11_);" d="M103.759,31.635c-0.045-0.047-0.078-0.104-0.106-0.162
		C103.681,31.531,103.714,31.588,103.759,31.635z"/>
	
		<linearGradient id="SVGID_12_" gradientUnits="userSpaceOnUse" x1="-46.2373" y1="195.9414" x2="-46.2705" y2="195.7108" gradientTransform="matrix(104.4583 -104.4583 140.5062 140.5062 -22578.75 -32314.2813)">
		<stop  offset="0" style="stop-color:#26ADCE"/>
		<stop  offset="0.3786" style="stop-color:#2288BC"/>
		<stop  offset="1" style="stop-color:#1E5AA6"/>
	</linearGradient>
	<path style="fill:url(#SVGID_12_);" d="M103.832,31.682c0.04,0.029,0.077,0.063,0.124,0.082
		C103.909,31.744,103.872,31.711,103.832,31.682z"/>
	
		<linearGradient id="SVGID_13_" gradientUnits="userSpaceOnUse" x1="-46.2368" y1="195.9414" x2="-46.27" y2="195.7108" gradientTransform="matrix(104.4583 -104.4583 140.5062 140.5062 -22578.75 -32314.2813)">
		<stop  offset="0" style="stop-color:#26ADCE"/>
		<stop  offset="0.3786" style="stop-color:#2288BC"/>
		<stop  offset="1" style="stop-color:#1E5AA6"/>
	</linearGradient>
	<path style="fill:url(#SVGID_13_);" d="M104.2,31.811c-0.045,0-0.084-0.016-0.125-0.023
		C104.116,31.795,104.155,31.811,104.2,31.811L104.2,31.811z"/>
	
		<linearGradient id="SVGID_14_" gradientUnits="userSpaceOnUse" x1="-46.1494" y1="195.7441" x2="-46.1494" y2="195.7441" gradientTransform="matrix(104.4583 -104.4583 140.5062 140.5062 -22578.75 -32314.2813)">
		<stop  offset="0" style="stop-color:#26ADCE"/>
		<stop  offset="0.3786" style="stop-color:#2288BC"/>
		<stop  offset="1" style="stop-color:#1E5AA6"/>
	</linearGradient>
	<path style="fill:url(#SVGID_14_);" d="M103.726,9.823c0.063-0.083,0.14-0.155,0.239-0.195
		C103.865,9.668,103.788,9.74,103.726,9.823z"/>
	
		<linearGradient id="SVGID_15_" gradientUnits="userSpaceOnUse" x1="-46.1885" y1="195.9346" x2="-46.2216" y2="195.704" gradientTransform="matrix(104.4583 -104.4583 140.5062 140.5062 -22578.75 -32314.2813)">
		<stop  offset="0" style="stop-color:#26ADCE"/>
		<stop  offset="0.3786" style="stop-color:#2288BC"/>
		<stop  offset="1" style="stop-color:#1E5AA6"/>
	</linearGradient>
	<path style="fill:url(#SVGID_15_);" d="M101.545,4.998c-1.413,0-2.555,1.143-2.556,2.556l-0.011,26.289l0.011-26.288
		C98.99,6.14,100.132,4.999,101.545,4.998z"/>
	
		<linearGradient id="SVGID_16_" gradientUnits="userSpaceOnUse" x1="-46.2134" y1="195.8867" x2="-46.1152" y2="195.8061" gradientTransform="matrix(104.4583 -104.4583 140.5062 140.5062 -22578.75 -32314.2813)">
		<stop  offset="0" style="stop-color:#3F81BA"/>
		<stop  offset="1" style="stop-color:#2DAECF"/>
	</linearGradient>
	<path style="fill:url(#SVGID_16_);" d="M119.719,30.93c-1.229,0.869-2.71,0.82-3.524,0.881l-3.527,0.002v4.584l6.154-0.004
		c1.407,0,2.556-1.137,2.574-2.537c0-0.795,0.001-1.523,0.001-2.193l0.002-4.164C121.189,29.139,120.631,30.283,119.719,30.93z"/>
	
		<linearGradient id="SVGID_17_" gradientUnits="userSpaceOnUse" x1="-46.2378" y1="195.8359" x2="-46.1397" y2="195.7554" gradientTransform="matrix(104.4583 -104.4583 140.5062 140.5062 -22578.75 -32314.2813)">
		<stop  offset="0" style="stop-color:#3F81BA"/>
		<stop  offset="1" style="stop-color:#2DAECF"/>
	</linearGradient>
	<path style="fill:url(#SVGID_17_);" d="M104.2,31.811L104.2,31.811c-0.045,0-0.084-0.016-0.125-0.023
		c-0.04-0.008-0.084-0.008-0.119-0.023c-0.047-0.02-0.084-0.053-0.124-0.082c-0.023-0.018-0.052-0.027-0.073-0.047
		c-0.045-0.047-0.078-0.104-0.106-0.162c-0.007-0.012-0.019-0.021-0.023-0.035c-0.03-0.074-0.048-0.156-0.048-0.244l0.01-20.994
		c0-0.146,0.055-0.272,0.135-0.376c0.063-0.083,0.14-0.155,0.239-0.195c0.074-0.031,0.157-0.047,0.245-0.047l8.355-0.004
		c1.266,0,2.293-1.027,2.293-2.292c0.001-1.107-0.785-2.031-1.829-2.245c-0.149-0.03-0.304-0.046-0.462-0.046l-11.022,0.004
		c-1.413,0.001-2.555,1.143-2.556,2.556l-0.011,26.288c-0.001,1.414,1.14,2.555,2.554,2.555l11.635-0.004v-4.584L104.2,31.811z"/>
	<linearGradient id="SVGID_18_" gradientUnits="userSpaceOnUse" x1="113.3721" y1="52.8994" x2="105.6119" y2="-1.0478">
		<stop  offset="0" style="stop-color:#26ADCE"/>
		<stop  offset="0.3786" style="stop-color:#2288BC"/>
		<stop  offset="1" style="stop-color:#1E5AA6"/>
	</linearGradient>
	<path style="fill:url(#SVGID_18_);" d="M119.719,30.93c-1.229,0.869-2.71,0.82-3.524,0.881l-3.027,0.002v-0.004l-8.967,0.002l0,0
		c-0.045,0-0.084-0.016-0.125-0.023c-0.04-0.008-0.084-0.008-0.119-0.023c-0.047-0.02-0.084-0.053-0.124-0.082
		c-0.023-0.018-0.052-0.027-0.073-0.047c-0.045-0.047-0.078-0.104-0.106-0.162c-0.007-0.012-0.019-0.021-0.023-0.035
		c-0.03-0.074-0.048-0.156-0.048-0.244l0.01-20.994c0-0.146,0.055-0.272,0.135-0.376c0.063-0.083,0.14-0.155,0.239-0.195
		c0.074-0.031,0.157-0.047,0.245-0.047l8.355-0.004c1.266,0,2.293-1.027,2.293-2.292c0.001-1.107-0.785-2.031-1.829-2.245
		c-0.149-0.03-0.304-0.046-0.462-0.046l-11.022,0.004c-1.413,0.001-2.555,1.143-2.556,2.556l-0.011,26.288
		c-0.001,1.414,1.14,2.555,2.554,2.555l11.135-0.004v0.004l6.154-0.004c1.407,0,2.556-1.137,2.574-2.537
		c0-0.795,0.001-1.523,0.001-2.193l0.002-4.164C121.189,29.139,120.631,30.283,119.719,30.93z"/>
</g>
</svg>
